<svg viewBox="255 288.9467 373.9782 94.1065" width="5000" height="1258.1816266295737" xmlns="http://www.w3.org/2000/svg" xmlns:xlink="http://www.w3.org/1999/xlink" preserveAspectRatio="none"><defs></defs><style>.aD6z1nYkhcolor {fill:#FF87B7;fill-opacity:1;}.aD6z1nYkhstrokeColor-str {stroke:#BCBCBC;stroke-opacity:1;}.agRshBQeH10filter-floo {flood-color:#FF87B7;flood-opacity:0.5;}.aIptOCySncolors-0 {fill:#8F8E8E;fill-opacity:1;}.aIptOCySncolors-1 {fill:#FF87B7;fill-opacity:1;}.aIptOCySncolors-2 {fill:#BCBCBC;fill-opacity:1;}.aIptOCySncolors-3 {fill:#575757;fill-opacity:1;}.aIptOCySncolors-4 {fill:#4B4B4B;fill-opacity:1;}.aIptOCySncolors-5 {fill:#F9CADD;fill-opacity:1;}.aIptOCySncolors-6 {fill:#D0D0D0;fill-opacity:1;}.aIptOCySncolors-7 {fill:#2F2F2F;fill-opacity:1;}.atBXipXk0bfillColor {fill:#6D6D6D;fill-opacity:1;}.atBXipXk0bstrokeColor-str {stroke:#8F8E8E;stroke-opacity:1;}</style><defs>
      <filter
        x="-1000"
        y="-1000"
        width="5000"
        height="5000"
        id="gRshBQeH1"
        filterUnits="userSpaceOnUse"
        primitiveUnits="userSpaceOnUse"
        color-interpolation-filters="sRGB">
        <feMerge><feMergeNode in="SourceGraphic" /></feMerge>
      </filter></defs><g opacity="1" transform="rotate(0 255 297.3742)">
<svg width="77.2516" height="77.2516" x="255" y="297.3742" version="1.1" preserveAspectRatio="none" viewBox="-253 349 96 96">
  <g transform="matrix(1 0 0 1 0 0)" class="aIptOCySncolors-0"><g><path d="M-162.3,382.4c0,18.3-8.6,28.1-42.7,56.4c-23.6-19.7-35-30.4-39.8-41.3h25.1l3.3,4.8c0.4,0.5,1,0.8,1.6,0.6   c0.6-0.1,1.1-0.7,1.2-1.3l2.7-17.3l6.1,37.1c0.1,0.8,0.8,1.3,1.5,1.3h0c0.8,0,1.4-0.5,1.5-1.3l5.1-27l0.6,1.9   c0.2,0.6,0.8,1.1,1.5,1.1h14.4c0.7,1.6,2.2,2.7,4.1,2.7c2.5,0,4.4-2,4.4-4.4c0-2.5-2-4.4-4.4-4.4c-2,0-3.6,1.3-4.2,3.1h-13.1   l-2.2-6.6c-0.2-0.7-0.8-1.2-1.6-1.1c-0.7,0-1.3,0.6-1.4,1.3l-4.6,24.3l-6.2-38c-0.1-0.8-0.8-1.3-1.5-1.3h0c-0.8,0-1.4,0.6-1.5,1.3   l-3.6,23l-1.5-2.2c-0.3-0.4-0.8-0.7-1.3-0.7h-27.1c-1.2-3.8-1.7-7.7-1.7-12c0-19.3,11.2-28.1,21.5-28.1c10.6,0,19,10.3,19.1,10.4   c0.5,0.6,1.3,1,2.1,1h0c0.8,0,1.6-0.4,2.1-1c0.1-0.1,8.4-10.4,19.1-10.4C-173.5,354.3-162.3,363.1-162.3,382.4 M-157,382.4   c0-21.9-13.5-33.4-26.8-33.4c-9.8,0-17.6,6.5-21.2,10.2c-3.6-3.6-11.4-10.2-21.2-10.2c-13.3,0-26.8,11.5-26.8,33.4   c0,21.8,11.3,33,46.3,62c0.5,0.4,1.1,0.6,1.7,0.6s1.2-0.2,1.7-0.6C-168.3,415.4-157,404.2-157,382.4"></path></g></g>
</svg>
</g><g opacity="1" transform="rotate(0 377.198 307.9085)">
<svg width="251.7802" height="56.6373" x="377.198" y="307.9085" version="1.1" preserveAspectRatio="none" viewBox="1.8 -31.24 177.28 39.879999999999995">
  <g transform="matrix(1 0 0 1 0 0)" class="aD6z1nYkhcolor"><path id="id-D6z1nYkh8" d="M20.56-8.96Q20.56-6.36 19.32-4.22Q18.08-2.08 15.94-0.84Q13.80 0.40 11.20 0.40L11.20 0.40Q8.56 0.40 6.42-0.84Q4.28-2.08 3.04-4.22Q1.80-6.36 1.80-8.96L1.80-8.96Q1.80-9.64 2.24-10.08Q2.68-10.52 3.36-10.52L3.36-10.52Q4.04-10.52 4.48-10.08Q4.92-9.64 4.92-8.96L4.92-8.96Q4.92-7.16 5.76-5.70Q6.60-4.24 8.04-3.40Q9.48-2.56 11.20-2.56L11.20-2.56Q12.92-2.56 14.36-3.42Q15.80-4.28 16.62-5.74Q17.44-7.20 17.44-8.96L17.44-8.96L17.44-29.68Q17.44-30.36 17.90-30.80Q18.36-31.24 19-31.24L19-31.24Q19.68-31.24 20.12-30.80Q20.56-30.36 20.56-29.68L20.56-29.68L20.56-8.96Z M37.48-22.08Q40.44-22.08 42.72-20.70Q45-19.32 46.26-16.88Q47.52-14.44 47.52-11.32L47.52-11.32Q47.52-10.68 47.12-10.30Q46.72-9.92 46.08-9.92L46.08-9.92L29.92-9.92Q30.24-6.64 32.48-4.60Q34.72-2.56 38.08-2.56L38.08-2.56Q39.52-2.56 40.98-3.06Q42.44-3.56 43.32-4.32L43.32-4.32Q43.84-4.72 44.40-4.72L44.40-4.72Q44.84-4.72 45.28-4.40L45.28-4.40Q45.80-3.92 45.80-3.32L45.80-3.32Q45.80-2.80 45.36-2.40L45.36-2.40Q44.04-1.28 42-0.54Q39.96 0.20 38.08 0.20L38.08 0.20Q34.88 0.20 32.36-1.22Q29.84-2.64 28.42-5.18Q27.00-7.72 27.00-10.92L27.00-10.92Q27.00-14.16 28.34-16.70Q29.68-19.24 32.06-20.66Q34.44-22.08 37.48-22.08L37.48-22.08ZM37.48-19.32Q34.44-19.32 32.44-17.44Q30.44-15.56 30.00-12.48L30.00-12.48L44.64-12.48Q44.32-15.56 42.40-17.44Q40.48-19.32 37.48-19.32L37.48-19.32Z M63.08-22.12Q65.92-22.12 68.18-20.92Q70.44-19.72 71.72-17.42Q73-15.12 73-11.92L73-11.92L73-1.52Q73-0.88 72.56-0.44Q72.12 0 71.48 0L71.48 0Q70.80 0 70.36-0.44Q69.92-0.88 69.92-1.52L69.92-1.52L69.92-11.92Q69.92-15.48 67.94-17.34Q65.96-19.20 62.76-19.20L62.76-19.20Q60.80-19.20 59.22-18.44Q57.64-17.68 56.72-16.34Q55.80-15 55.80-13.36L55.80-13.36L55.80-1.52Q55.80-0.84 55.38-0.42Q54.96 0 54.28 0L54.28 0Q53.60 0 53.16-0.42Q52.72-0.84 52.72-1.52L52.72-1.52L52.72-20.32Q52.72-21 53.16-21.44Q53.60-21.88 54.28-21.88L54.28-21.88Q54.96-21.88 55.38-21.44Q55.80-21 55.80-20.32L55.80-20.32L55.80-18.96Q57.12-20.44 59.00-21.28Q60.88-22.12 63.08-22.12L63.08-22.12Z M89.12-22.08Q92.08-22.08 94.36-20.70Q96.64-19.32 97.90-16.88Q99.16-14.44 99.16-11.32L99.16-11.32Q99.16-10.68 98.76-10.30Q98.36-9.92 97.72-9.92L97.72-9.92L81.56-9.92Q81.88-6.64 84.12-4.60Q86.36-2.56 89.72-2.56L89.72-2.56Q91.16-2.56 92.62-3.06Q94.08-3.56 94.96-4.32L94.96-4.32Q95.48-4.72 96.04-4.72L96.04-4.72Q96.48-4.72 96.92-4.40L96.92-4.40Q97.44-3.92 97.44-3.32L97.44-3.32Q97.44-2.80 97-2.40L97-2.40Q95.68-1.28 93.64-0.54Q91.60 0.20 89.72 0.20L89.72 0.20Q86.52 0.20 84-1.22Q81.48-2.64 80.06-5.18Q78.64-7.72 78.64-10.92L78.64-10.92Q78.64-14.16 79.98-16.70Q81.32-19.24 83.70-20.66Q86.08-22.08 89.12-22.08L89.12-22.08ZM89.12-19.32Q86.08-19.32 84.08-17.44Q82.08-15.56 81.64-12.48L81.64-12.48L96.28-12.48Q95.96-15.56 94.04-17.44Q92.12-19.32 89.12-19.32L89.12-19.32Z M114.24-22.12Q115.92-22.12 116.90-21.68Q117.88-21.24 117.88-20.44L117.88-20.44Q117.88-20.20 117.84-20.08L117.84-20.08Q117.68-19.52 117.34-19.32Q117-19.12 116.40-19.12L116.40-19.12Q116.04-19.12 115.16-19.20L115.16-19.20Q114.84-19.24 114.20-19.24L114.20-19.24Q111.20-19.24 109.30-17.64Q107.40-16.04 107.40-13.48L107.40-13.48L107.40-1.52Q107.40-0.80 107-0.40Q106.60 0 105.88 0L105.88 0Q105.16 0 104.76-0.40Q104.36-0.80 104.36-1.52L104.36-1.52L104.36-20.36Q104.36-21.08 104.76-21.48Q105.16-21.88 105.88-21.88L105.88-21.88Q106.60-21.88 107-21.48Q107.40-21.08 107.40-20.36L107.40-20.36L107.40-18.60Q108.56-20.28 110.36-21.20Q112.16-22.12 114.24-22.12L114.24-22.12Z M131.04-22.08Q134.24-22.08 136.76-20.66Q139.28-19.24 140.72-16.70Q142.16-14.16 142.16-10.92L142.16-10.92L142.16-2.76Q142.16 0.44 140.74 3.04Q139.32 5.64 136.80 7.14Q134.28 8.64 131.12 8.64L131.12 8.64Q128.04 8.64 125.64 7.48Q123.24 6.32 121.60 4.24L121.60 4.24Q121.24 3.84 121.24 3.32L121.24 3.32Q121.24 2.72 121.80 2.28L121.80 2.28Q122.20 2 122.68 2L122.68 2Q123.04 2 123.40 2.18Q123.76 2.36 123.96 2.64L123.96 2.64Q125.16 4.16 127.00 5Q128.84 5.84 131.16 5.84L131.16 5.84Q133.40 5.84 135.22 4.74Q137.04 3.64 138.08 1.66Q139.12-0.32 139.12-2.88L139.12-2.88L139.12-4.68Q137.92-2.40 135.72-1.10Q133.52 0.20 130.72 0.20L130.72 0.20Q127.60 0.20 125.14-1.22Q122.68-2.64 121.30-5.18Q119.92-7.72 119.92-10.92L119.92-10.92Q119.92-14.16 121.36-16.70Q122.80-19.24 125.34-20.66Q127.88-22.08 131.04-22.08L131.04-22.08ZM131.04-2.60Q133.36-2.60 135.20-3.66Q137.04-4.72 138.08-6.62Q139.12-8.52 139.12-10.92L139.12-10.92Q139.12-13.32 138.08-15.22Q137.04-17.12 135.20-18.20Q133.36-19.28 131.04-19.28L131.04-19.28Q128.68-19.28 126.84-18.20Q125.00-17.12 123.96-15.22Q122.92-13.32 122.92-10.92L122.92-10.92Q122.92-8.52 123.96-6.62Q125.00-4.72 126.84-3.66Q128.68-2.60 131.04-2.60L131.04-2.60Z M148.80-20.32Q148.80-21 149.24-21.44Q149.68-21.88 150.36-21.88L150.36-21.88Q151.04-21.88 151.46-21.44Q151.88-21 151.88-20.32L151.88-20.32L151.88-1.56Q151.88-0.88 151.46-0.44Q151.04 0 150.36 0L150.36 0Q149.68 0 149.24-0.44Q148.80-0.88 148.80-1.56L148.80-1.56L148.80-20.32ZM150.36-30.40Q151.24-30.40 151.88-29.80Q152.52-29.20 152.52-28.24L152.52-28.24Q152.52-27.32 151.88-26.68Q151.24-26.04 150.32-26.04L150.32-26.04Q149.40-26.04 148.78-26.68Q148.16-27.32 148.16-28.24L148.16-28.24Q148.16-29.20 148.80-29.80Q149.44-30.40 150.36-30.40L150.36-30.40Z M169.04-22.08Q172.00-22.08 174.28-20.70Q176.56-19.32 177.82-16.88Q179.08-14.44 179.08-11.32L179.08-11.32Q179.08-10.68 178.68-10.30Q178.28-9.92 177.64-9.92L177.64-9.92L161.48-9.92Q161.80-6.64 164.04-4.60Q166.28-2.56 169.64-2.56L169.64-2.56Q171.08-2.56 172.54-3.06Q174.00-3.56 174.88-4.32L174.88-4.32Q175.40-4.72 175.96-4.72L175.96-4.72Q176.40-4.72 176.84-4.40L176.84-4.40Q177.36-3.92 177.36-3.32L177.36-3.32Q177.36-2.80 176.92-2.40L176.92-2.40Q175.60-1.28 173.56-0.54Q171.52 0.20 169.64 0.20L169.64 0.20Q166.44 0.20 163.92-1.22Q161.40-2.64 159.98-5.18Q158.56-7.72 158.56-10.92L158.56-10.92Q158.56-14.16 159.90-16.70Q161.24-19.24 163.62-20.66Q166.00-22.08 169.04-22.08L169.04-22.08ZM169.04-19.32Q166.00-19.32 164.00-17.44Q162.00-15.56 161.56-12.48L161.56-12.48L176.20-12.48Q175.88-15.56 173.96-17.44Q172.04-19.32 169.04-19.32L169.04-19.32Z"/></g>
</svg>
</g><g opacity="1" transform="rotate(0 353.3202 288.9467)">
<svg width="4.2138" height="94.1065" x="353.3202" y="288.9467" version="1.1" preserveAspectRatio="none" viewBox="0 0 4.2138 94.1065">
  <rect x="0" y="0" width="4.2138" height="94.1065" class="atBXipXk0bfillColor atBXipXk0bstrokeColor-str" style="stroke-width:0;" rx="0px" ry="0px" />
</svg>
</g></svg>